<?xml version="1.0" encoding="utf-8"?>
<!-- Generator: Adobe Illustrator 15.1.0, SVG Export Plug-In . SVG Version: 6.00 Build 0)  -->
<!DOCTYPE svg PUBLIC "-//W3C//DTD SVG 1.1//EN" "http://www.w3.org/Graphics/SVG/1.1/DTD/svg11.dtd">
<svg version="1.1" xmlns="http://www.w3.org/2000/svg" xmlns:xlink="http://www.w3.org/1999/xlink" x="0px" y="0px"
	 width="66.099px" height="39.01px" viewBox="0 0 66.099 39.01" enable-background="new 0 0 66.099 39.01" xml:space="preserve">
<g id="object">
	<g>
		<path fill="#EC1E24" stroke="#231F20" stroke-miterlimit="10" d="M46.489,12.738C45.853,5.874,40.084,0.5,33.053,0.5
			c-7.025,0-12.793,5.368-13.436,12.227c0,0,7.814,13.164,7.814,13.535c1.713,0.787,3.613,1.238,5.622,1.238
			c2.005,0,3.902-0.449,5.613-1.233L46.489,12.738z"/>
		<path fill="#EC1E24" stroke="#231F20" stroke-miterlimit="10" d="M19.618,12.727c-3.836-1.752-8.43-1.697-12.362,0.572
			c-6.457,3.726-8.673,11.981-4.946,18.44c3.726,6.457,11.982,8.672,18.439,4.946c3.935-2.27,6.282-6.223,6.683-10.424
			L19.618,12.727z"/>
		<path fill="#EC1E24" stroke="#231F20" stroke-miterlimit="10" d="M58.852,13.318c-3.93-2.271-8.524-2.331-12.362-0.581
			l-7.823,13.529c0.398,4.202,2.743,8.156,6.674,10.429c6.456,3.731,14.713,1.521,18.444-4.933
			C67.516,25.307,65.308,17.05,58.852,13.318z"/>
	</g>
</g>
<g id="circles">
	<path id="Oxygen_2_" fill="none" d="M46.553,14c0,7.455-6.043,13.5-13.5,13.5c-7.455,0-13.5-6.045-13.5-13.5
		c0-7.457,6.045-13.5,13.5-13.5C40.51,0.5,46.553,6.543,46.553,14"/>
	<path id="Oxygen_1_" fill="none" d="M25.696,18.246c3.726,6.457,1.512,14.713-4.947,18.439c-6.457,3.726-14.714,1.511-18.439-4.946
		c-3.727-6.459-1.511-14.715,4.946-18.44C13.714,9.572,21.969,11.787,25.696,18.246"/>
	<path id="Oxygen" fill="none" d="M63.784,31.763c-3.73,6.454-11.988,8.664-18.444,4.933c-6.455-3.73-8.663-11.989-4.932-18.444
		c3.731-6.456,11.989-8.663,18.443-4.933C65.308,17.05,67.516,25.307,63.784,31.763"/>
</g>
</svg>
