<?xml version="1.0" encoding="utf-8"?>
<!-- Generator: Adobe Illustrator 15.1.0, SVG Export Plug-In . SVG Version: 6.00 Build 0)  -->
<!DOCTYPE svg PUBLIC "-//W3C//DTD SVG 1.1//EN" "http://www.w3.org/Graphics/SVG/1.1/DTD/svg11.dtd">
<svg version="1.1" xmlns="http://www.w3.org/2000/svg" xmlns:xlink="http://www.w3.org/1999/xlink" x="0px" y="0px"
	 width="79.043px" height="75.416px" viewBox="0 0 79.043 75.416" enable-background="new 0 0 79.043 75.416" xml:space="preserve">
<g id="object">
	<g>
		<path fill="#69BC45" stroke="#231F20" stroke-miterlimit="10" d="M25.024,37.995c0-0.465,0.027-0.924,0.07-1.378
			c-4.91-2.759-11.099-2.949-16.332,0.067C0.867,41.237-1.843,51.326,2.708,59.221c4.552,7.896,14.642,10.604,22.536,6.054
			c5.235-3.019,8.173-8.474,8.242-14.108C28.497,48.874,25.024,43.846,25.024,37.995z"/>
		<path fill="#B6E2EC" stroke="#231F20" stroke-miterlimit="10" d="M39.524,0.5c-7.732,0-14,6.268-14,14
			c0,4.731,2.353,8.905,5.946,11.439c2.279,1.608,5.053,2.561,8.054,2.561c3.001,0,5.776-0.953,8.055-2.561
			c3.592-2.534,5.945-6.708,5.945-11.439C53.524,6.768,47.256,0.5,39.524,0.5z"/>
		<path fill="#69BC45" stroke="#231F20" stroke-miterlimit="10" d="M45.942,50.983c3.634-1.8,6.401-5.068,7.523-9.039
			c-2.746,0.092-5.32,0.847-7.567,2.122C45.413,46.376,45.447,48.73,45.942,50.983z"/>
	</g>
	<path fill="#69BC45" stroke="#231F20" stroke-miterlimit="10" d="M70.286,33.163c-5.468-3.154-11.987-2.82-16.993,0.305
		c0.469,1.426,0.731,2.945,0.731,4.528c0,1.371-0.203,2.692-0.559,3.949c-1.123,3.971-3.889,7.239-7.523,9.039
		c0.96,4.374,3.669,8.349,7.854,10.764c5.249,3.027,11.463,2.829,16.38,0.045c2.478-1.402,4.632-3.449,6.157-6.094
		C80.887,47.806,78.179,37.716,70.286,33.163z"/>
	<path fill="#2F2F2F" stroke="#231F20" stroke-miterlimit="10" d="M53.293,33.467c-1.02-3.104-3.052-5.746-5.714-7.528
		c-2.279,1.608-13.83,1.608-16.109,0c-3.526,2.36-5.956,6.226-6.376,10.678c-0.043,0.454-0.07,0.913-0.07,1.378
		c0,5.851,3.473,10.879,8.462,13.171c1.589,0.729,3.331,1.176,5.167,1.285c0.29,0.018,0.577,0.044,0.871,0.044
		c2.308,0,4.481-0.553,6.418-1.512c3.634-1.8,6.401-5.068,7.523-9.039c0.355-1.257,0.559-2.578,0.559-3.949
		C54.024,36.412,53.762,34.893,53.293,33.467z"/>
	<path fill="#69BC45" stroke="#231F20" stroke-miterlimit="10" d="M54.024,41.916c-4.044,0-13.988,6.975-15.371,10.535
		c-0.72,1.852-1.129,3.858-1.129,5.965c0,9.112,7.387,16.5,16.5,16.5c7.956,0,14.594-5.631,16.152-13.124
		c0.228-1.09,0.349-2.219,0.349-3.376C70.524,49.304,63.137,41.916,54.024,41.916z"/>
</g>
<g id="circles">
	<circle id="Fluorine" fill="none" cx="39.274" cy="14.75" r="14.25"/>
	<circle id="Carbon" fill="none" cx="39.524" cy="37.995" r="14.5"/>
	<circle id="Chlorine_2_" fill="none" cx="17.003" cy="50.979" r="16.503"/>
	<circle id="Chlorine_1_" fill="none" cx="62.22" cy="47.454" r="16.503"/>
	<circle id="Chlorine" fill="none" cx="54.024" cy="58.416" r="16.503"/>
</g>
</svg>
